<svg width="163" height="60" viewBox="0 0 163 60" fill="none" xmlns="http://www.w3.org/2000/svg">
<path d="M92.3759 0.000183105C80.7836 0.273783 67.7741 6.74978 61.6877 11.5498C61.6877 11.5498 69.6812 10.041 80.8607 12.6466C80.8607 12.6466 81.0181 9.08098 83.7714 5.10418C85.7724 2.21298 92.3759 0.000183105 92.3759 0.000183105Z" fill="#DA291C"/>
<path d="M54.5002 11.9608C54.5002 11.9608 66.673 3.70235 83.083 0.274353C83.083 0.274353 71.73 0.573553 60.0366 4.82955C44.5901 10.4528 40.8435 14.7336 40.8435 14.7336C50.7841 11.824 54.5002 11.9608 54.5002 11.9608Z" fill="black"/>
<path d="M14.9123 25.54L15.0897 24.7096C15.3338 23.5648 14.8055 22.6096 13.2558 22.6096C11.5343 22.6096 10.5008 23.8224 10.3146 24.6944C9.49475 28.5392 22.9812 26.6584 21.4636 33.7736C20.5795 37.9176 16.3528 39.772 9.2932 39.772C2.6648 39.772 -0.728487 38.3264 0.131479 34.292L0.276814 33.6096H8.02534L7.84788 34.4408C7.49298 36.1032 8.44127 36.7032 9.99097 36.7032C11.6266 36.7032 12.8262 35.5192 13.0534 34.4552C13.8733 30.6112 0.897499 32.5192 2.36851 25.6216C3.206 21.696 6.98069 19.5416 13.7384 19.5416C20.7112 19.5416 23.2919 21.3688 22.4023 25.54H14.9123Z" fill="#DA291C"/>
<path d="M31.7656 33.4689C30.6463 33.7505 30.0907 34.3361 29.8948 35.2529C29.6988 36.1721 30.1798 37.1249 31.267 37.1249C32.8777 37.1249 33.6855 36.3609 34.0067 34.8561L34.3985 33.0161C34.3985 33.0161 32.8842 33.1873 31.7656 33.4689ZM35.2288 29.0465C35.4087 28.2049 34.9132 27.7713 33.6654 27.7713C32.2964 27.7713 31.4926 28.5209 31.1417 29.9745H24.8602C25.7041 26.0217 30.884 25.3329 34.1857 25.3329C39.2588 25.3329 42.6232 26.1745 41.8556 29.7705L40.4191 36.5033C40.1469 37.7785 40.0152 38.7737 40.4673 39.4873H33.4607C33.3226 39.0033 33.3515 38.4921 33.3499 37.9313H33.2696C32.2032 39.1561 30.1236 39.8457 27.9492 39.8457C23.6004 39.8457 22.2683 38.1609 22.7741 35.7889C23.3185 33.2393 24.9831 32.0409 29.7607 31.3521L32.7123 30.9185C34.099 30.7217 34.5294 30.6889 34.8923 30.6249L35.2288 29.0465Z" fill="#DA291C"/>
<path d="M45.6476 28.7755H43.1512L43.8097 25.6899H46.3061L46.7621 23.5499C47.3499 20.7955 49.2585 19.7755 54.2923 19.7755C55.3385 19.7755 56.6168 19.8267 57.7225 19.9283L57.1861 22.4435C56.8344 22.3923 56.5172 22.3667 55.9945 22.3667C55.1081 22.3667 54.2031 22.6467 54.0562 23.3363L53.5535 25.6899H56.4932L55.8347 28.7755H52.8951L50.6099 39.4875H43.3616L45.6476 28.7755Z" fill="#DA291C"/>
<path d="M67.1507 29.8877C67.4606 28.4341 67.1193 27.7717 65.5889 27.7717C64.0994 27.7717 63.4747 28.4341 63.1648 29.8877L62.9552 30.8677H66.9419L67.1507 29.8877ZM62.4221 33.3677L61.9579 35.5437C61.6424 37.0237 62.5272 37.4061 63.5333 37.4061C64.8221 37.4061 65.7744 36.5301 66.1767 34.6421H72.6999C71.9066 37.9829 69.0537 39.8453 63.0532 39.8453C56.0474 39.8453 54.2167 37.8549 55.3376 32.6021C56.4641 27.3221 59.6262 25.3325 66.1494 25.3325C71.9475 25.3325 74.5395 26.9653 73.4731 31.9645L73.1736 33.3677H62.4221Z" fill="#DA291C"/>
<path d="M78.7856 19.1408H86.0339L81.6931 39.488H74.4448L78.7856 19.1408Z" fill="#DA291C"/>
<path d="M89.1664 19.1408H96.4139L95.5291 23.292H88.28L89.1664 19.1408ZM87.7693 25.6896H95.0168L92.0748 39.4832H84.8273L87.7693 25.6896Z" fill="#DA291C"/>
<path d="M96.6605 25.6897H99.0766L99.4508 23.9313L107.892 18.1505L106.324 25.6897H109.183L108.524 28.7753H105.666L104.183 35.7233C104.015 36.5145 104.519 36.7936 105.687 36.7936H106.814L106.24 39.4881C104.888 39.5889 103.468 39.6409 102.261 39.6409C97.8312 39.6409 96.198 39.1817 96.8508 36.1209L98.4174 28.7753H96.0021L96.6605 25.6897Z" fill="#DA291C"/>
<path d="M120.405 29.8877C120.715 28.4341 120.373 27.7717 118.843 27.7717C117.353 27.7717 116.728 28.4341 116.418 29.8877L116.209 30.8677H120.195L120.405 29.8877ZM115.675 33.3677L115.211 35.5437C114.897 37.0237 115.781 37.4061 116.788 37.4061C118.076 37.4061 119.028 36.5301 119.43 34.6421H125.953C125.161 37.9829 122.307 39.8453 116.308 39.8453C109.301 39.8453 107.471 37.8549 108.592 32.6021C109.718 27.3221 112.88 25.3325 119.404 25.3325C125.203 25.3325 127.793 26.9653 126.727 31.9645L126.427 33.3677H115.675Z" fill="#DA291C"/>
<path d="M128.696 38.8838C129.006 38.8742 129.078 38.7462 129.078 38.5846C129.078 38.4278 129.006 38.3478 128.744 38.3478H128.348V38.8838H128.696ZM128.348 39.211V40.119H128.019V38.0198H128.701C129.087 38.0198 129.487 38.1246 129.487 38.5982C129.487 38.8406 129.34 39.0318 129.058 39.0886V39.0974C129.35 39.1542 129.383 39.2822 129.416 39.511C129.445 39.7094 129.469 39.9294 129.54 40.119H129.12C129.097 39.9998 129.063 39.867 129.049 39.7438C129.025 39.563 129.025 39.3974 128.93 39.2974C128.848 39.211 128.74 39.2214 128.625 39.211H128.348ZM130.203 39.0934C130.203 38.2854 129.545 37.6262 128.729 37.6262C127.91 37.6262 127.247 38.2854 127.247 39.0934C127.247 39.9102 127.91 40.5694 128.729 40.5694C129.545 40.5694 130.203 39.9102 130.203 39.0934ZM126.933 39.0934C126.933 38.1094 127.734 37.3118 128.729 37.3118C129.721 37.3118 130.517 38.1094 130.517 39.0934C130.517 40.0854 129.721 40.883 128.729 40.883C127.734 40.883 126.933 40.0854 126.933 39.0934Z" fill="#DA291C"/>
<path d="M77.248 53.7158H82.4086L81.319 47.0454L77.248 53.7158ZM72.0055 58.9534L80.7826 45.1534H82.835L85.4935 58.9534H83.4018L82.672 55.3598H76.2443L73.9816 58.9534H72.0055Z" fill="black"/>
<path d="M95.1432 49.358H96.9667L94.9192 58.9532H93.1342L93.4361 57.538H93.3976C92.4123 58.742 91.0786 59.2396 89.7353 59.2396C87.7207 59.2396 86.896 57.7108 87.3071 55.7796L88.6778 49.358H90.5005L89.2896 55.0348C88.9347 56.6972 89.0576 57.9204 90.8032 57.9204C91.5508 57.9204 92.65 57.538 93.2458 56.5436C93.783 55.6452 94.0423 54.5188 94.0913 54.2892L95.1432 49.358Z" fill="black"/>
<path d="M100.289 49.358L100.725 47.3124L102.671 46.7396L102.112 49.358L104.35 49.3004L104.059 50.658L101.838 50.6396L100.517 56.8316C100.371 57.5188 100.839 57.8436 101.49 57.8436C101.778 57.8436 102.17 57.8068 102.474 57.73L102.177 59.1252C101.75 59.1436 101.327 59.2396 100.905 59.2396C100.464 59.2396 100.122 59.2204 99.6977 59.1436C99.4223 59.086 98.9742 58.9332 98.7574 58.5124C98.5294 58.0548 98.4411 58.0156 98.7149 56.7364L100.016 50.6396L98.3616 50.658L98.6514 49.3004L100.289 49.358Z" fill="black"/>
<path d="M108.485 57.9205C110.653 57.9205 111.731 56.2005 112.167 54.1549C112.604 52.1109 112.26 50.3909 110.093 50.3909C107.925 50.3909 106.847 52.1109 106.411 54.1549C105.974 56.2005 106.317 57.9205 108.485 57.9205ZM114.086 54.1549C113.45 57.1373 111.37 59.2389 108.203 59.2389C105.038 59.2389 103.856 57.1373 104.492 54.1549C105.128 51.1733 107.208 49.0717 110.374 49.0717C113.54 49.0717 114.722 51.1733 114.086 54.1549Z" fill="black"/>
<path d="M126.907 48.594C126.913 46.95 125.567 46.51 124.089 46.51C120.694 46.51 118.833 49.4724 118.359 52.0532C117.759 55.5892 118.421 57.5188 122.377 57.5956C123.317 57.5956 124.289 57.4428 125.234 57.1564L126.065 53.2564H122.919L123.27 51.6124H128.335L126.879 58.4364C125.185 58.914 123.522 59.2396 121.949 59.2396C119.993 59.2396 118.453 58.9908 117.222 57.6532C115.973 56.3156 115.929 54.0036 116.346 52.0532C116.652 50.6188 117.465 49.0516 118.441 47.81C120.098 45.7084 122.311 44.866 124.671 44.866C127.011 44.866 129.373 45.9364 128.922 48.594H126.907Z" fill="black"/>
<path d="M129.507 58.9533L132.452 45.1533H134.274L131.33 58.9533H129.507Z" fill="black"/>
<path d="M138.843 54.2892C137.718 54.3468 136.155 54.7484 135.857 56.142C135.605 57.3284 136.303 57.9204 137.378 57.9204C139.526 57.9204 140.325 56.0676 140.666 54.2892H138.843ZM140.935 53.0285C141.29 51.3644 141.402 50.3909 139.464 50.3909C138.543 50.3909 137.565 50.9252 137.334 51.9188H135.415C135.96 49.8173 137.769 49.0724 139.668 49.0724C141.645 49.0724 143.476 49.6644 142.904 52.3388L141.926 56.9268C141.836 57.3468 141.684 58.1501 141.57 58.9533H140.342C140.169 58.9533 139.823 59.0485 139.853 58.8189C139.908 58.3797 139.96 57.9596 140.034 57.5188H139.996C139.144 58.7236 137.959 59.2388 136.636 59.2388C134.966 59.2388 133.462 58.3797 133.861 56.5061C134.436 53.8109 137.002 53.0285 139.285 53.0285H140.935Z" fill="black"/>
<path d="M149.689 49.072C151.512 49.072 153.401 49.836 152.802 52.0144H150.883C151.221 50.792 150.367 50.3904 149.311 50.3904C148.333 50.3904 147.448 50.8488 147.22 51.9192C146.992 52.9888 148.625 53.0656 149.271 53.2768C150.788 53.8112 152.627 54.0032 152.166 56.1624C151.665 58.5128 149.207 59.2392 147.231 59.2392C145.217 59.2392 143.723 58.3224 144.216 56.1048H146.135C145.921 57.2888 146.592 57.9208 147.704 57.9208C148.779 57.9208 149.962 57.5 150.227 56.2576C150.684 54.1176 144.489 55.7224 145.289 51.9768C145.718 49.9688 147.943 49.072 149.689 49.072Z" fill="black"/>
<path d="M159.487 49.072C161.31 49.072 163.199 49.836 162.6 52.0144H160.681C161.019 50.792 160.165 50.3904 159.109 50.3904C158.131 50.3904 157.246 50.8488 157.018 51.9192C156.79 52.9888 158.423 53.0656 159.069 53.2768C160.585 53.8112 162.425 54.0032 161.964 56.1624C161.463 58.5128 159.005 59.2392 157.028 59.2392C155.015 59.2392 153.522 58.3224 154.015 56.1048H155.932C155.719 57.2888 156.39 57.9208 157.502 57.9208C158.576 57.9208 159.76 57.5 160.025 56.2576C160.482 54.1176 154.287 55.7224 155.087 51.9768C155.516 49.9688 157.741 49.072 159.487 49.072Z" fill="black"/>
</svg>
