<svg width="40" height="40" viewBox="0 0 40 40" fill="none" xmlns="http://www.w3.org/2000/svg">
<path d="M20 40C31.0457 40 40 31.0457 40 20C40 8.9543 31.0457 0 20 0C8.9543 0 0 8.9543 0 20C0 31.0457 8.9543 40 20 40Z" fill="#D93175"/>
<path d="M13.4549 10.5285C12.7965 10.7846 12.2397 11.126 11.6829 11.6828C11.1262 12.2355 10.7848 12.7963 10.5287 13.4507C10.2808 14.0847 10.1142 14.8121 10.0654 15.8769C10.0166 16.9417 10.0045 17.2831 10.0045 19.998C10.0045 22.7128 10.0166 23.0542 10.0654 24.119C10.1142 25.1838 10.2849 25.9113 10.5287 26.5453C10.7848 27.2037 11.1262 27.7605 11.6829 28.3173C12.2397 28.874 12.7965 29.2154 13.4549 29.4715C14.0889 29.7194 14.8164 29.886 15.8812 29.9348C16.946 29.9835 17.2874 29.9957 20.0022 29.9957C22.7171 29.9957 23.0584 29.9835 24.1233 29.9348C25.1881 29.886 25.9155 29.7153 26.5495 29.4715C27.2079 29.2154 27.7647 28.874 28.3215 28.3173C28.8783 27.7605 29.2197 27.2037 29.4757 26.5453C29.7236 25.9113 29.8903 25.1838 29.939 24.119C29.9878 23.0542 30 22.7128 30 19.998C30 17.2831 29.9878 16.9417 29.939 15.8769C29.8903 14.8121 29.7196 14.0847 29.4757 13.4507C29.2197 12.7963 28.8783 12.2355 28.3256 11.6828C27.7688 11.126 27.212 10.7846 26.5536 10.5285C25.9196 10.2806 25.1921 10.114 24.1273 10.0652C23.0625 10.0165 22.7211 10.0043 20.0063 10.0043C17.2914 10.0043 16.9501 10.0165 15.8853 10.0652C14.8164 10.1099 14.0889 10.2806 13.4549 10.5285ZM24.042 11.8616C25.0174 11.9063 25.5457 12.0689 25.8993 12.207C26.3666 12.3899 26.6999 12.6053 27.0494 12.9548C27.3989 13.3043 27.6143 13.6376 27.7972 14.105C27.9354 14.4586 28.098 14.9869 28.1427 15.9623C28.1914 17.0149 28.1996 17.3319 28.1996 20.002C28.1996 22.6722 28.1874 22.9892 28.1427 24.0418C28.098 25.0172 27.9354 25.5455 27.7972 25.8991C27.6143 26.3665 27.3989 26.6997 27.0494 27.0492C26.6999 27.3988 26.3666 27.6142 25.8993 27.797C25.5457 27.9352 25.0174 28.0978 24.042 28.1425C22.9894 28.1913 22.6724 28.1994 20.0022 28.1994C17.3321 28.1994 17.0151 28.1872 15.9625 28.1425C14.9871 28.0978 14.4587 27.9352 14.1052 27.797C13.6378 27.6142 13.3045 27.3988 12.955 27.0492C12.6055 26.6997 12.3901 26.3665 12.2072 25.8991C12.069 25.5455 11.9065 25.0172 11.8618 24.0418C11.813 22.9892 11.8049 22.6722 11.8049 20.002C11.8049 17.3319 11.8171 17.0149 11.8618 15.9623C11.9065 14.9869 12.069 14.4586 12.2072 14.105C12.3901 13.6376 12.6055 13.3043 12.955 12.9548C13.3045 12.6053 13.6378 12.3899 14.1052 12.207C14.4587 12.0689 14.9871 11.9063 15.9625 11.8616C17.0151 11.8128 17.3321 11.8047 20.0022 11.8047C22.6724 11.8047 22.9894 11.8128 24.042 11.8616Z" fill="white"/>
<path d="M14.8692 20.002C14.8692 22.8388 17.1695 25.135 20.0022 25.135C22.8349 25.135 25.1352 22.8347 25.1352 20.002C25.1352 17.1693 22.839 14.869 20.0022 14.869C17.1654 14.869 14.8692 17.1653 14.8692 20.002ZM23.3348 20.002C23.3348 21.8431 21.8433 23.3346 20.0022 23.3346C18.1611 23.3346 16.6696 21.8431 16.6696 20.002C16.6696 18.161 18.1611 16.6694 20.0022 16.6694C21.8433 16.6694 23.3348 18.161 23.3348 20.002Z" fill="white"/>
<path d="M25.3425 15.8648C26.0047 15.8648 26.5415 15.328 26.5415 14.6658C26.5415 14.0037 26.0047 13.4669 25.3425 13.4669C24.6804 13.4669 24.1436 14.0037 24.1436 14.6658C24.1436 15.328 24.6804 15.8648 25.3425 15.8648Z" fill="white"/>
</svg>
