<svg width="72" height="72" viewBox="0 0 72 72" fill="none" xmlns="http://www.w3.org/2000/svg">
<g clip-path="url(#clip0_907_14304)">
<path opacity="0.4" d="M35.9999 72C55.8026 72 71.8559 70.2541 71.8559 68.1005C71.8559 65.9468 55.8026 64.201 35.9999 64.201C16.1972 64.201 0.143921 65.9468 0.143921 68.1005C0.143921 70.2541 16.1972 72 35.9999 72Z" fill="#B3B4B5"/>
<path d="M57.4069 8.83296H10.0798V67.4784H57.4069V8.83296Z" fill="white" stroke="black" stroke-width="1.5" stroke-linecap="round" stroke-linejoin="round"/>
<path d="M37.4081 5.25888C37.4081 4.28654 37.0218 3.35401 36.3343 2.66646C35.6467 1.97891 34.7142 1.59264 33.7418 1.59264C32.7695 1.59264 31.837 1.97891 31.1494 2.66646C30.4619 3.35401 30.0756 4.28654 30.0756 5.25888H20.5399V11.6813H46.9438V5.25888H37.4081Z" fill="#DA291C" stroke="black" stroke-width="1.5" stroke-linecap="round" stroke-linejoin="round"/>
<path d="M51.569 69.552C57.2855 69.552 61.9197 64.9049 61.9197 59.1725C61.9197 53.44 57.2855 48.793 51.569 48.793C45.8524 48.793 41.2183 53.44 41.2183 59.1725C41.2183 64.9049 45.8524 69.552 51.569 69.552Z" fill="white" stroke="black" stroke-width="1.5" stroke-linecap="round" stroke-linejoin="round"/>
<path d="M46.7623 60.7997L49.5588 62.9078L56.3758 55.44" stroke="black" stroke-width="1.5" stroke-linecap="round" stroke-linejoin="round"/>
<path d="M20.5399 31.5533H46.9466" stroke="black" stroke-width="1.5" stroke-linecap="round" stroke-linejoin="round"/>
<path d="M20.5399 23.4864H46.9466" stroke="black" stroke-width="1.5" stroke-linecap="round" stroke-linejoin="round"/>
<path d="M20.5399 39.9917H46.9466" stroke="black" stroke-width="1.5" stroke-linecap="round" stroke-linejoin="round"/>
<path d="M20.5399 48.4301H35.9393" stroke="black" stroke-width="1.5" stroke-linecap="round" stroke-linejoin="round"/>
</g>
<defs>
<clipPath id="clip0_907_14304">
<rect width="72" height="72" fill="white" transform="translate(-0.00012207)"/>
</clipPath>
</defs>
</svg>
