<svg width="72" height="72" viewBox="0 0 72 72" fill="none" xmlns="http://www.w3.org/2000/svg">
<g clip-path="url(#clip0_907_18862)">
<path opacity="0.4" d="M35.9999 71.9999C55.8026 71.9999 71.8559 70.2541 71.8559 68.1004C71.8559 65.9468 55.8026 64.2009 35.9999 64.2009C16.1972 64.2009 0.143921 65.9468 0.143921 68.1004C0.143921 70.2541 16.1972 71.9999 35.9999 71.9999Z" fill="#B3B4B5"/>
<path d="M37.8044 27.102C35.0487 24.3444 30.5792 24.3429 27.8216 27.0986C25.064 29.8543 25.0624 34.3237 27.8181 37.0813L56.9152 66.1987C59.6709 68.9563 64.1403 68.9579 66.898 66.2022C69.6556 63.4465 69.6571 58.9771 66.9014 56.2194L37.8044 27.102Z" fill="#DA291C" stroke="black" stroke-width="1.5" stroke-linecap="round" stroke-linejoin="round"/>
<path d="M23.0051 2.00002C19.6694 1.9988 16.3929 2.88163 13.5093 4.55863L26.9517 17.9955L18.7073 26.2343L5.66905 13.2127C3.98864 16.9525 3.56303 21.1356 4.45578 25.1372C5.34853 29.1388 7.51174 32.7443 10.6224 35.4152C13.733 38.0861 17.6242 39.6792 21.7148 39.9565C25.8054 40.2338 29.8759 39.1805 33.3186 36.9538C36.7612 34.7272 39.3913 31.4467 40.8159 27.6022C42.2406 23.7577 42.3835 19.5554 41.2232 15.6231C40.0629 11.6907 37.6617 8.23912 34.3782 5.7838C31.0947 3.32848 27.1051 2.00115 23.0051 2.00002Z" fill="white" stroke="black" stroke-width="1.5" stroke-linecap="round" stroke-linejoin="round"/>
<path d="M61.5196 63.6625C63.22 63.6625 64.5984 62.2853 64.5984 60.5866C64.5984 58.8879 63.22 57.5108 61.5196 57.5108C59.8193 57.5108 58.4409 58.8879 58.4409 60.5866C58.4409 62.2853 59.8193 63.6625 61.5196 63.6625Z" fill="white" stroke="black" stroke-width="1.5" stroke-linecap="round" stroke-linejoin="round"/>
</g>
<defs>
<clipPath id="clip0_907_18862">
<rect width="72" height="72" fill="white" transform="translate(-0.00012207)"/>
</clipPath>
</defs>
</svg>
