<svg width="112" height="16" viewBox="0 0 112 16" fill="none" xmlns="http://www.w3.org/2000/svg">
<g clip-path="url(#clip0_907_16659)">
<path d="M15.973 6.0695C15.9408 5.96617 15.8818 5.87428 15.8025 5.80416C15.7233 5.73403 15.6269 5.68843 15.5243 5.67249L10.6698 4.93329L8.49776 0.331955C8.45198 0.234547 8.38109 0.152516 8.29311 0.0951523C8.20512 0.0377888 8.10357 0.00738525 7.99994 0.00738525C7.89631 0.00738525 7.79476 0.0377888 7.70678 0.0951523C7.61879 0.152516 7.5479 0.234547 7.50212 0.331955L5.3301 4.93329L0.475569 5.67249C0.372955 5.68843 0.276614 5.73403 0.19736 5.80416C0.118106 5.87428 0.0590762 5.96617 0.0268968 6.0695C-0.00513778 6.17252 -0.00889507 6.28289 0.0160535 6.38804C0.0410021 6.49319 0.0936521 6.58887 0.167999 6.66418L3.68127 10.2539L2.85369 15.3203C2.83614 15.4273 2.84751 15.5373 2.88653 15.6378C2.92554 15.7384 2.99064 15.8255 3.07445 15.8892C3.15826 15.953 3.25744 15.991 3.36076 15.9987C3.46408 16.0065 3.56742 15.9839 3.65908 15.9333L8.00153 13.5413L12.344 15.9333C12.4356 15.9839 12.539 16.0065 12.6423 15.9987C12.7456 15.991 12.8448 15.953 12.9286 15.8892C13.0124 15.8255 13.0775 15.7384 13.1165 15.6378C13.1555 15.5373 13.1669 15.4273 13.1494 15.3203L12.3186 10.2539L15.8319 6.66418C15.9062 6.58887 15.9589 6.49319 15.9838 6.38804C16.0088 6.28289 16.005 6.17252 15.973 6.0695Z" fill="#E86421"/>
</g>
<g clip-path="url(#clip1_907_16659)">
<path d="M39.973 6.0695C39.9408 5.96617 39.8818 5.87428 39.8025 5.80416C39.7233 5.73403 39.6269 5.68843 39.5243 5.67249L34.6698 4.93329L32.4978 0.331955C32.452 0.234547 32.3811 0.152516 32.2931 0.0951523C32.2051 0.0377888 32.1036 0.00738525 31.9999 0.00738525C31.8963 0.00738525 31.7948 0.0377888 31.7068 0.0951523C31.6188 0.152516 31.5479 0.234547 31.5021 0.331955L29.3301 4.93329L24.4756 5.67249C24.373 5.68843 24.2766 5.73403 24.1974 5.80416C24.1181 5.87428 24.0591 5.96617 24.0269 6.0695C23.9949 6.17252 23.9911 6.28289 24.0161 6.38804C24.041 6.49319 24.0937 6.58887 24.168 6.66418L27.6813 10.2539L26.8537 15.3203C26.8361 15.4273 26.8475 15.5373 26.8865 15.6378C26.9255 15.7384 26.9906 15.8255 27.0744 15.8892C27.1583 15.953 27.2574 15.991 27.3608 15.9987C27.4641 16.0065 27.5674 15.9839 27.6591 15.9333L32.0015 13.5413L36.344 15.9333C36.4356 15.9839 36.539 16.0065 36.6423 15.9987C36.7456 15.991 36.8448 15.953 36.9286 15.8892C37.0124 15.8255 37.0775 15.7384 37.1165 15.6378C37.1555 15.5373 37.1669 15.4273 37.1494 15.3203L36.3186 10.2539L39.8319 6.66418C39.9062 6.58887 39.9589 6.49319 39.9838 6.38804C40.0088 6.28289 40.005 6.17252 39.973 6.0695Z" fill="#E86421"/>
</g>
<g clip-path="url(#clip2_907_16659)">
<path d="M63.973 6.0695C63.9408 5.96617 63.8818 5.87428 63.8025 5.80416C63.7233 5.73403 63.6269 5.68843 63.5243 5.67249L58.6698 4.93329L56.4978 0.331955C56.452 0.234547 56.3811 0.152516 56.2931 0.0951523C56.2051 0.0377888 56.1036 0.00738525 55.9999 0.00738525C55.8963 0.00738525 55.7948 0.0377888 55.7068 0.0951523C55.6188 0.152516 55.5479 0.234547 55.5021 0.331955L53.3301 4.93329L48.4756 5.67249C48.373 5.68843 48.2766 5.73403 48.1974 5.80416C48.1181 5.87428 48.0591 5.96617 48.0269 6.0695C47.9949 6.17252 47.9911 6.28289 48.0161 6.38804C48.041 6.49319 48.0937 6.58887 48.168 6.66418L51.6813 10.2539L50.8537 15.3203C50.8361 15.4273 50.8475 15.5373 50.8865 15.6378C50.9255 15.7384 50.9906 15.8255 51.0744 15.8892C51.1583 15.953 51.2574 15.991 51.3608 15.9987C51.4641 16.0065 51.5674 15.9839 51.6591 15.9333L56.0015 13.5413L60.344 15.9333C60.4356 15.9839 60.539 16.0065 60.6423 15.9987C60.7456 15.991 60.8448 15.953 60.9286 15.8892C61.0124 15.8255 61.0775 15.7384 61.1165 15.6378C61.1555 15.5373 61.1669 15.4273 61.1494 15.3203L60.3186 10.2539L63.8319 6.66418C63.9062 6.58887 63.9589 6.49319 63.9838 6.38804C64.0088 6.28289 64.005 6.17252 63.973 6.0695Z" fill="#E86421"/>
</g>
<g clip-path="url(#clip3_907_16659)">
<path d="M87.973 6.0695C87.9408 5.96617 87.8818 5.87428 87.8025 5.80416C87.7233 5.73403 87.6269 5.68843 87.5243 5.67249L82.6698 4.93329L80.4978 0.331955C80.452 0.234547 80.3811 0.152516 80.2931 0.0951523C80.2051 0.0377888 80.1036 0.00738525 79.9999 0.00738525C79.8963 0.00738525 79.7948 0.0377888 79.7068 0.0951523C79.6188 0.152516 79.5479 0.234547 79.5021 0.331955L77.3301 4.93329L72.4756 5.67249C72.373 5.68843 72.2766 5.73403 72.1974 5.80416C72.1181 5.87428 72.0591 5.96617 72.0269 6.0695C71.9949 6.17252 71.9911 6.28289 72.0161 6.38804C72.041 6.49319 72.0937 6.58887 72.168 6.66418L75.6813 10.2539L74.8537 15.3203C74.8361 15.4273 74.8475 15.5373 74.8865 15.6378C74.9255 15.7384 74.9906 15.8255 75.0744 15.8892C75.1583 15.953 75.2574 15.991 75.3608 15.9987C75.4641 16.0065 75.5674 15.9839 75.6591 15.9333L80.0015 13.5413L84.344 15.9333C84.4356 15.9839 84.539 16.0065 84.6423 15.9987C84.7456 15.991 84.8448 15.953 84.9286 15.8892C85.0124 15.8255 85.0775 15.7384 85.1165 15.6378C85.1555 15.5373 85.1669 15.4273 85.1494 15.3203L84.3186 10.2539L87.8319 6.66418C87.9062 6.58887 87.9589 6.49319 87.9838 6.38804C88.0088 6.28289 88.005 6.17252 87.973 6.0695Z" fill="#E86421"/>
</g>
<g clip-path="url(#clip4_907_16659)">
<path fill-rule="evenodd" clip-rule="evenodd" d="M104 1.89561L104.001 12.3027C104.09 12.3029 104.178 12.3252 104.258 12.3695L107.864 14.3558L107.176 10.1488C107.144 9.96024 107.204 9.76772 107.335 9.63416L110.252 6.65466L106.221 6.04089C106.04 6.01332 105.884 5.89438 105.803 5.72279L104 1.89561ZM99.3487 15.9976C99.3527 15.998 99.3567 15.9984 99.3606 15.9987C99.464 16.0065 99.5673 15.9838 99.659 15.9332L104.001 13.5415L108.343 15.9332C108.53 16.0362 108.756 16.0191 108.927 15.889C109.098 15.7589 109.184 15.5383 109.148 15.3202L108.319 10.2534L111.832 6.66496C111.983 6.51048 112.038 6.27959 111.973 6.06913C111.907 5.85867 111.734 5.70518 111.525 5.67329L106.669 4.93411L104.497 0.324079C104.404 0.125579 104.211 0 104 0C103.789 0 103.596 0.125579 103.502 0.324079L101.903 3.71897L101.33 4.93322L96.4754 5.67243C96.3728 5.68837 96.2765 5.73397 96.1972 5.80409C96.1776 5.82151 96.1591 5.84027 96.142 5.86021C96.1062 5.90202 96.0759 5.94946 96.0526 6.00135C96.0427 6.02338 96.034 6.04612 96.0268 6.06944C95.9947 6.17246 95.991 6.28283 96.0159 6.38798C96.0187 6.39982 96.0219 6.41155 96.0254 6.42313C96.0524 6.51312 96.1004 6.59654 96.1674 6.66496L99.4898 10.0583L99.681 10.2537L98.8518 15.3202C98.816 15.5385 98.9016 15.7589 99.0724 15.889C99.1552 15.9519 99.2508 15.9884 99.3487 15.9976Z" fill="#E86421"/>
</g>
<defs>
<clipPath id="clip0_907_16659">
<rect width="16" height="16" fill="white" transform="translate(-0.00012207)"/>
</clipPath>
<clipPath id="clip1_907_16659">
<rect width="16" height="16" fill="white" transform="translate(23.9999)"/>
</clipPath>
<clipPath id="clip2_907_16659">
<rect width="16" height="16" fill="white" transform="translate(47.9999)"/>
</clipPath>
<clipPath id="clip3_907_16659">
<rect width="16" height="16" fill="white" transform="translate(71.9999)"/>
</clipPath>
<clipPath id="clip4_907_16659">
<rect width="16" height="16" fill="white" transform="translate(95.9999)"/>
</clipPath>
</defs>
</svg>
