<svg width="72" height="72" viewBox="0 0 72 72" fill="none" xmlns="http://www.w3.org/2000/svg">
<g clip-path="url(#clip0_907_18031)">
<path opacity="0.4" d="M35.9999 72C55.8026 72 71.8559 70.2541 71.8559 68.1005C71.8559 65.9468 55.8026 64.201 35.9999 64.201C16.1972 64.201 0.143921 65.9468 0.143921 68.1005C0.143921 70.2541 16.1972 72 35.9999 72Z" fill="#B3B4B5"/>
<path d="M63.7919 68.112H8.20789L18.2216 55.0973H53.7781L63.7919 68.112Z" fill="#DA291C" stroke="black" stroke-width="1.5" stroke-linecap="round" stroke-linejoin="round"/>
<path d="M53.4066 7.848C48.8267 3.28351 42.6243 0.72049 36.1582 0.72049C29.6922 0.72049 23.4898 3.28351 18.9099 7.848C16.6452 10.1044 14.8482 12.7858 13.6221 15.7382C12.3959 18.6907 11.7648 21.8562 11.7648 25.0531C11.7648 28.2501 12.3959 31.4156 13.6221 34.368C14.8482 37.3205 16.6452 40.0018 18.9099 42.2582L36.1582 59.4634L53.4066 42.2582C55.6713 40.0018 57.4683 37.3205 58.6944 34.368C59.9206 31.4156 60.5517 28.2501 60.5517 25.0531C60.5517 21.8562 59.9206 18.6907 58.6944 15.7382C57.4683 12.7858 55.6713 10.1044 53.4066 7.848ZM36.1582 35.1043C34.1715 35.0986 32.2311 34.5043 30.582 33.3964C28.9328 32.2885 27.649 30.7167 26.8927 28.8796C26.1364 27.0425 25.9414 25.0225 26.3325 23.0746C26.7236 21.1268 27.6831 19.3385 29.09 17.9357C30.4968 16.5329 32.2878 15.5785 34.2367 15.193C36.1857 14.8075 38.2052 15.0082 40.0401 15.7698C41.875 16.5314 43.4431 17.8197 44.5463 19.472C45.6495 21.1243 46.2382 23.0664 46.2382 25.0531C46.2306 27.7215 45.1653 30.278 43.2757 32.1621C41.3862 34.0463 38.8266 35.1043 36.1582 35.1043Z" fill="white" stroke="black" stroke-width="1.5" stroke-linecap="round" stroke-linejoin="round"/>
<path d="M15.7737 64.5581H20.5948" stroke="black" stroke-width="1.5" stroke-linecap="round" stroke-linejoin="round"/>
<path d="M24.0508 64.5581H37.1202" stroke="black" stroke-width="1.5" stroke-linecap="round" stroke-linejoin="round"/>
<path d="M46.2354 58.9795H56.7646" stroke="black" stroke-width="1.5" stroke-linecap="round" stroke-linejoin="round"/>
</g>
<defs>
<clipPath id="clip0_907_18031">
<rect width="72" height="72" fill="white" transform="translate(-0.00012207)"/>
</clipPath>
</defs>
</svg>
