<svg width="40" height="40" viewBox="0 0 40 40" fill="none" xmlns="http://www.w3.org/2000/svg">
<path d="M20 40C31.0457 40 40 31.0457 40 20C40 8.9543 31.0457 0 20 0C8.9543 0 0 8.9543 0 20C0 31.0457 8.9543 40 20 40Z" fill="#167CAC"/>
<path d="M16.2825 29.25C23.8292 29.25 27.9592 22.9967 27.9592 17.5825C27.9592 17.4067 27.9592 17.2308 27.9508 17.0542C28.7508 16.4792 29.4475 15.7508 30 14.9275C29.2633 15.255 28.4717 15.4708 27.6392 15.575C28.4875 15.0708 29.1358 14.2633 29.4475 13.3042C28.6558 13.7758 27.775 14.1117 26.8392 14.2958C26.0867 13.4958 25.0225 13 23.8458 13C21.5808 13 19.74 14.8392 19.74 17.1025C19.74 17.4225 19.78 17.7342 19.8442 18.0383C16.4342 17.87 13.4092 16.2308 11.3842 13.7517C11.0325 14.36 10.8325 15.0633 10.8325 15.815C10.8325 17.2383 11.5608 18.4942 12.6575 19.23C11.985 19.205 11.3525 19.0217 10.8 18.7175V18.7742C10.8 20.7575 12.2167 22.4208 14.09 22.7967C13.7458 22.8925 13.385 22.94 13.0092 22.94C12.745 22.94 12.4892 22.9167 12.2408 22.8683C12.7608 24.5 14.2825 25.6833 16.0742 25.715C14.6658 26.8192 12.8975 27.475 10.9767 27.475C10.6483 27.475 10.32 27.4583 10 27.4183C11.8083 28.57 13.97 29.25 16.2825 29.25Z" fill="white"/>
</svg>
