<svg width="40" height="40" viewBox="0 0 40 40" fill="none" xmlns="http://www.w3.org/2000/svg">
<path d="M20 40C31.0457 40 40 31.0457 40 20C40 8.9543 31.0457 0 20 0C8.9543 0 0 8.9543 0 20C0 31.0457 8.9543 40 20 40Z" fill="#0071A1"/>
<path fill-rule="evenodd" clip-rule="evenodd" d="M12.4043 10C13.7302 10 14.806 11.0778 14.806 12.407C14.806 13.7371 13.7302 14.8157 12.4043 14.8157C11.0732 14.8157 10 13.7362 10 12.407C10 11.0786 11.0732 10 12.4043 10ZM10.3296 30H14.4781V16.6402H10.3287V30H10.3296ZM17.0779 16.6402H21.0497V18.4672H21.1069C21.6593 17.4168 23.0117 16.3091 25.0275 16.3091C29.2239 16.3091 30 19.0754 30 22.673V30H25.8549V23.5027C25.8549 21.9545 25.8284 19.9615 23.7016 19.9615C21.5449 19.9615 21.2154 21.6491 21.2154 23.3924V30H17.0779V16.6402Z" fill="#FFFFFE"/>
</svg>
